<?xml version="1.0" encoding="UTF-8"?> <svg xmlns="http://www.w3.org/2000/svg" id="a" width="187" height="57" viewBox="0 0 187 57"><defs><style>.b{fill:#fff;}.c{fill:#d12626;}</style></defs><path class="b" d="M161.62,18.05V2.76c0-.15-.02-.29-.02-.43.01-.65,0-.76.65-.76,4.88,0,9.76-.1,14.64-.1h7.84c.2,0,.4.1.59.11.17,0,.24.16.24.33,0,.06,0,.14,0,.2,0,1.99,0,3.99,0,5.98,0,.08.01.18-.02.26-.03.07-.11.08-.17.09-.25.02-.51-.05-.76-.05h-15.34c-.79,0-.74.05-.74.81,0,.99,0,2.02,0,3.02,0,.35.03.34.39.35.23,0,.45-.03.68-.03h14.91c.25,0,.51.06.77.06.17,0,.26.12.27.29.01.2.01.41.01.61,0,1.79,0,3.59,0,5.37,0,.09,0,.17,0,.26-.01.31-.05.36-.33.37-.22,0-.45,0-.68,0-2.61,0-5.23-.02-7.84-.02-2.47,0-4.94.01-7.41.02-.17,0-.34,0-.51.01-.16.01-.26.1-.27.27,0,.14,0,.28,0,.43,0,2.39,0,4.77,0,7.16,0,.17,0,.34.01.51,0,.12.08.22.21.22.25,0,.51.01.77.01,5,0,10,0,15,0,1.24,0,1.04-.17,1.05,1.01.02,1.7,0,3.41,0,5.11,0,.12,0,.23,0,.34-.01.35-.03.43-.41.44-.11,0-.23.07-.34.07h-22.41c-.86,0-.8,0-.83-.9-.02-.76.02-1.6.02-2.37v-13.77h0Z"></path><path class="b" d="M80.44,18.51c0-5.52,0-10.62,0-15.87,0-.9-.11-.9.8-.9,7.47,0,14.94-.03,22.41-.03.17,0,.34-.01.51,0,.16,0,.27.07.27.24,0,.06,0,.11,0,.16,0,1.99,0,3.98,0,5.96,0,.06,0,.11,0,.17,0,.16-.07.2-.25.2-.26,0-.51-.06-.77-.06h-14.4c-.2,0-.4.07-.6.07-1.15.01-.99-.07-1,1.04,0,.88,0,1.78,0,2.66,0,.44.03.47.5.48.2,0,.4,0,.6,0,5.06,0,10.16,0,15.22,0,.8,0,.81-.04.81.73v5.45c0,.12-.05.23-.05.34-.01.28-.08.33-.39.33-1.93,0-3.88,0-5.81,0-2.21,0-4.43,0-6.65,0-1.11,0-2.22.02-3.33.03-.23,0-.46,0-.68.03-.12.01-.2.1-.21.23,0,.2,0,.4,0,.6,0,3.26,0,6.53.01,9.8,0,1.36.01,2.73.02,4.09,0,.2,0,.4-.02.6,0,.12-.09.2-.22.22-.08.01-.17,0-.25,0h-5.97c-.06,0-.11,0-.17,0-.3-.01-.36-.07-.38-.34-.01-.2,0-.4-.01-.6-.02-2.84-.04-5.57-.05-8.41,0-2.44,0-4.92,0-7.22h.05Z"></path><path class="b" d="M60.82,1.48h13.19c.86,0,.76.05.76.89,0,1.79,0,3.63,0,5.42,0,.14,0,.31,0,.45,0,.17-.1.2-.27.2-.23,0-.46-.05-.68-.05h-8.43c-.23,0-.46.07-.68.07-.21,0-.24.16-.25.36,0,.4.04.83.04,1.23v22.32c0,.8-.06,1.59-.06,2.39,0,.2-.11.32-.32.33-.09,0-.2,0-.29,0h-5.88c-.12,0-.23,0-.34-.01-.13-.01-.2-.1-.21-.22-.01-.25-.01-.51-.01-.77,0-8.15,0-16.3,0-24.45,0-.33.15-.75-.08-.99-.26-.27-.7-.11-1.06-.11-2.76,0-5.51,0-8.26,0-.23,0-.46,0-.68,0-.16,0-.25-.11-.28-.27-.01-.08-.02-.17-.02-.25,0-1.76,0-3.52.02-5.28.01-1.25-.04-1.13,1.07-1.14,4.26,0,8.52-.1,12.78-.1"></path><path class="b" d="M117.36,17.56c0,2.85.01,5,0,7.16-.02,2.05-.07,4.09-.09,6.13,0,1.11.04,2.22.06,3.32,0,.2.02.39.02.59,0,.17-.11.25-.27.27-.14.02-.28.03-.42.03-1.96,0-3.92,0-5.88,0-.09,0-.17,0-.26-.01-.17-.02-.24-.13-.25-.29,0-.22,0-.45,0-.68,0-2.53,0-5.06,0-7.58,0-8.04,0-16.08,0-24.12,0-1.19-.16-1.03,1.04-1.03,1.73,0,3.46,0,5.2,0,.14,0,.29,0,.43,0,.29,0,.34.05.34.35,0,1.28-.02,2.56,0,3.84.1,4.23.06,8.46.07,12.01"></path><path class="b" d="M40.99,18.28c-.06,1.78-.07,3.57,0,5.36.05,1.3-.04,2.61-.04,3.92,0,2.24,0,4.48,0,6.72,0,.14,0,.28,0,.43-.01.29-.08.36-.34.37-.12,0-.23,0-.34,0h-5.62c-.11,0-.23,0-.34,0-.29-.02-.36-.08-.36-.35,0-.74,0-1.48.01-2.21,0-1.39.03-2.78.03-4.17,0-7.86,0-15.72,0-23.58,0-.99-.02-1.99-.02-2.98,0-.36.04-.41.38-.41,2.07,0,4.14,0,6.22,0,.34,0,.37.05.39.4,0,.14,0,.28,0,.42.02,1.82-.03,3.63.05,5.45.04.93-.05,1.87-.05,2.81,0,2.38.03,4.76.05,7.15,0,.23,0,.46,0,.68"></path><path class="b" d="M154.12,32.72c-.02-1.97-.22-3.91-.75-5.81-.64-2.27-1.62-4.35-3.23-6.11-.96-1.05-2.03-1.98-3.21-2.82.19-.22.38-.43.56-.65,1.94-2.28,3.14-4.85,2.99-7.92-.16-3.32-1.74-5.68-4.79-7.03-1.08-.47-2.23-.65-3.4-.65-3.41,0-6.82.02-10.22.03-2.22,0-4.43.02-6.64.03-.17,0-.34.02-.51.02-.11,0-.16.09-.17.16-.02.17-.02.34-.02.51,0,6.45,0,12.9,0,19.34,0,4.09,0,8.18,0,12.27,0,.23,0,.45,0,.68,0,.16.08.27.25.28.2,0,.4.02.59.02h5.45c.14,0,.28,0,.43,0,.2,0,.31-.11.32-.31,0-.23,0-.45,0-.68-.01-3.81-.03-7.61-.04-11.42,0-.23,0-.45.02-.68,0-.06.1-.15.16-.16.17-.03.34-.03.51-.03,1.65,0,3.29.01,4.94,0,1.33-.02,2.6.27,3.78.86,3.72,1.84,5.84,4.75,5.92,8.99.01.82,0,1.65-.01,2.47,0,.2,0,.4.02.59,0,.13.09.21.21.22.14.01.28.02.43.02,1.99,0,3.98,0,5.96.01.09,0,.17,0,.25,0,.17-.01.25-.11.24-.27-.02-.65-.06-1.31-.07-1.96ZM142.85,12.39c-.4.6-.93,1.07-1.55,1.44-.93.57-1.95.91-3.04,1.02-1.22.12-2.44.08-3.66.09-.77,0-1.54,0-2.3-.01-.51,0-.54-.03-.54-.52,0-.99,0-1.99,0-2.98,0-.68,0-1.36,0-2.05,0-.14,0-.28.02-.43.03-.35.07-.4.4-.41.2,0,.49,0,.69,0,1.42,0,2.51,0,4.36,0h0c1.38,0,2.86,0,4.34,0,.34,0,.63.02.95.15.6.26.92.71.98,1.36.09.85-.18,1.62-.65,2.33Z"></path><path class="b" d="M28.6,8.19c-.46-2.57-1.91-4.45-4.25-5.61-1.24-.62-2.58-.83-3.96-.82-3.21.01-6.42.02-9.63.03-2.76,0-5.51.01-8.27.03-.33,0-.73-.16-.97.11-.2.22-.1.61-.1.92,0,1.76.03,3.55.04,5.31,0,3.44,0,6.68,0,10.36h0c0,5.06,0,10.4,0,15.63,0,.25,0,.46.02.71,0,.13.09.2.22.21.11,0,.22.01.34.01,1.93,0,3.86,0,5.79,0,.14,0,.27,0,.41-.02.12-.02.18-.1.18-.22,0-.4-.06-.8-.06-1.19v-10.48c0-.34.05-.68.05-1.02,0-.21.15-.31.36-.31.57,0,1.14,0,1.7-.02,2.16-.05,4.31.1,6.47-.12.71-.07,1.41-.17,2.09-.36,2.87-.78,5.34-2.21,7.22-4.55,2.01-2.51,2.94-5.36,2.36-8.58ZM21.49,11.23c-.39.98-1.04,1.75-1.89,2.36-1.21.87-2.57,1.32-4.06,1.33-2.19.02-4.37,0-6.56,0-.11,0-.23,0-.34-.03-.07-.02-.12-.1-.16-.17-.03-.05-.02-.11-.02-.17,0-1.76,0-3.52.02-5.28,0-.74.03-.75.81-.74,1.82.01,3.66,0,5.5,0h0c1.84,0,3.59,0,5.4,0,.23,0,.44-.01.66.03.55.1.83.41.89.98.06.57-.04,1.13-.25,1.67Z"></path><path class="b" d="M10.12,47.36c0,1.19-.35,2.09-1.04,2.71-.69.62-1.72.93-3.07.93h-2.27v4.31H1.61v-11.62h4.4c2.74,0,4.11,1.23,4.11,3.68ZM7.47,45.93c-.32-.29-.81-.43-1.46-.43h-2.27v3.68h2.27c.66,0,1.16-.15,1.47-.46.32-.31.48-.78.48-1.41s-.16-1.09-.48-1.38Z"></path><path class="b" d="M12.72,43.68h2.13v11.62h-2.13v-11.62Z"></path><path class="b" d="M26.74,53.44v1.86h-8.91v-1.82l5.77-7.94h-5.57v-1.86h8.2v1.82l-5.75,7.94h6.26Z"></path><path class="b" d="M38.43,53.44v1.86h-8.91v-1.82l5.77-7.94h-5.57v-1.86h8.2v1.82l-5.75,7.94h6.26Z"></path><path class="b" d="M48.68,52.43h-4.68l-1.03,2.87h-2.15l4.22-11.76h2.58l4.23,11.76h-2.15l-1.03-2.87ZM48.02,50.58l-1.69-4.72-1.67,4.72h3.36Z"></path><path class="b" d="M67.52,50.41c.36.46.54,1.02.54,1.69,0,1.07-.33,1.88-1,2.41-.67.53-1.79.8-3.37.8h-4.45v-11.62h4.45c1.42,0,2.43.26,3.02.78.59.52.89,1.3.89,2.33,0,.62-.13,1.15-.39,1.59-.26.43-.67.77-1.23,1.02.66.22,1.18.55,1.54,1.01ZM61.38,48.61h2.32c1.17,0,1.75-.55,1.75-1.64,0-.56-.13-.97-.4-1.21-.27-.25-.72-.37-1.35-.37h-2.32v3.22ZM65.35,50.71c-.37-.26-.92-.38-1.66-.38h-2.32v3.25h2.32c.81,0,1.38-.13,1.71-.39.33-.26.5-.68.5-1.25s-.18-.97-.55-1.23Z"></path><path class="b" d="M77.85,52.43h-4.68l-1.03,2.87h-2.15l4.22-11.76h2.58l4.23,11.76h-2.15l-1.03-2.87ZM77.19,50.58l-1.69-4.72-1.67,4.72h3.36Z"></path><path class="b" d="M86.42,50.61l-.66.72v3.97h-2.13v-11.62h2.13v4.68l4.26-4.68h2.65l-4.88,5.38,4.95,6.24h-2.68l-3.65-4.69Z"></path><path class="b" d="M102.79,53.55v1.75h-7.45v-11.62h7.38v1.75h-5.24v3.16h4.48v1.75h-4.48v3.22h5.32Z"></path><path class="b" d="M109.72,50.75h-1.78v4.55h-2.13v-11.62h4.4c2.74,0,4.11,1.18,4.11,3.54,0,.88-.2,1.6-.61,2.16-.41.56-1.02.95-1.82,1.17l2.94,4.75h-2.38l-2.73-4.55ZM107.94,48.92h2.27c1.3,0,1.95-.58,1.95-1.75,0-.58-.16-1.01-.48-1.27-.32-.27-.81-.4-1.46-.4h-2.27v3.42Z"></path><path class="b" d="M117.18,54.7v-1.93c1.24.64,2.61.97,4.13.97.73,0,1.26-.14,1.6-.41.34-.28.51-.64.52-1.1,0-.45-.16-.79-.47-1.01-.31-.22-.81-.43-1.48-.61l-1.04-.29c-.59-.16-1.11-.36-1.55-.59-.44-.23-.81-.57-1.1-1.01-.3-.44-.44-1.02-.44-1.73,0-1.14.34-2.02,1.03-2.61.68-.6,1.65-.9,2.9-.9.75,0,1.4.07,1.97.21.57.14,1.15.35,1.74.62v1.87c-1.11-.58-2.35-.87-3.71-.87-1.21,0-1.81.51-1.81,1.52.01.45.15.78.42,1,.27.21.74.41,1.4.58l1.06.29c.64.17,1.19.38,1.64.63.45.25.82.6,1.12,1.05.3.46.44,1.05.44,1.77-.01,1.06-.39,1.9-1.14,2.51-.75.61-1.78.92-3.09.92-1.54,0-2.92-.29-4.13-.86Z"></path><path class="c" d="M142.2,45.1c.99,1,1.48,2.47,1.48,4.4s-.49,3.41-1.48,4.4c-.98.98-2.45,1.48-4.4,1.48h-3.91v-11.77h3.91c1.94,0,3.4.5,4.39,1.5ZM141.04,46.02c-.72-.73-1.8-1.1-3.23-1.1h-2.41v9.13h2.41c1.44,0,2.52-.37,3.24-1.1.72-.73,1.08-1.9,1.08-3.49s-.36-2.7-1.09-3.43Z"></path><path class="c" d="M148.18,54.5c-.75-.76-1.12-1.84-1.12-3.24v-7.66h1.52v7.66c0,1,.25,1.77.75,2.28.5.52,1.24.78,2.22.78s1.72-.26,2.22-.78c.5-.52.75-1.28.75-2.28v-7.66h1.52v7.66c0,1.4-.37,2.48-1.12,3.24-.75.76-1.87,1.14-3.37,1.14s-2.63-.38-3.37-1.14Z"></path><path class="c" d="M168.35,52.19c0,1.08-.32,1.88-.97,2.4-.65.52-1.73.78-3.24.78h-4.07v-11.77h4.07c1.38,0,2.35.26,2.9.78.56.52.84,1.31.84,2.38,0,.63-.13,1.17-.4,1.61-.26.44-.68.78-1.25,1.03,1.41.46,2.11,1.39,2.11,2.8ZM161.58,48.84h2.56c1.46,0,2.2-.66,2.21-1.97,0-.72-.16-1.24-.48-1.54-.32-.3-.9-.45-1.72-.45h-2.56v3.96ZM166.14,50.58c-.45-.32-1.12-.47-2-.47h-2.56v3.99h2.56c.97,0,1.66-.16,2.07-.48.4-.32.61-.83.61-1.52s-.23-1.2-.68-1.51Z"></path><path class="c" d="M178.33,51.94h-4.91l-1.26,3.43h-1.55l4.43-11.91h1.68l4.44,11.91h-1.55l-1.27-3.43ZM177.81,50.59l-1.94-5.25-1.94,5.25h3.88Z"></path><path class="c" d="M184.09,43.6h1.51v11.77h-1.51v-11.77Z"></path></svg> 