<?xml version="1.0" encoding="UTF-8"?> <svg xmlns="http://www.w3.org/2000/svg" id="a" width="169" height="130" viewBox="0 0 169 130"><defs><style>.b{fill:#020304;}.c{fill:#010102;}.d{fill:#fff;}</style></defs><path class="c" d="M167.25,42.44h-23.7C134.54,18.33,111.5,1.18,84.5,1.18S34.46,18.33,25.45,42.44H1.75v45.38h23.8c9.08,24.11,32.05,41,58.95,41s49.87-16.89,58.95-41h23.8v-45.38Z"></path><path class="d" d="M77.04,3.84c.02.25.26.55,1.67,1.21-22.47,2.2-41.32,17.19-49.48,37.4h-1.51C35.77,21.88,54.53,6.62,77.04,3.84Z"></path><path class="d" d="M115,44.57c-1.16.61-1.75,1.02-2.3,1.42h51.05v38.29H5.26v-38.29h76.56c-.95-.35-1.83-.71-2.85-1.42H3.85v41.13h161.29v-41.13h-50.15Z"></path><path class="d" d="M76.13,34.42c.29.22.62.37.96.45.45.12.91.2,1.37.3.09.02.21.04.21.13,0,.37.26.37.5.4.86.09,1.73.19,2.59.28.53.05,1.09.24,1.6.11,1.38-.35,3.47-.61,3.52-.61.05,0-.04-.11-.14-.15-.04-.01-.14-.01-.14-.01h0s0,0,0,0c-.36-.02-2.42.08-3.22.11,0,0,0,0-.02,0-.58,0-1.16.02-1.74.02-.37,0-.67-.12-.93-.43-.32-.37-.72-.67-1.08-1.01-.17-.17-.37-.22-.61-.21-.31.02-.62,0-.94.02-.41.01-.79-.02-1.17-.22-.29-.16-.63-.22-.97-.25-.21-.02-.26.06-.25.28,0,.35.17.59.44.79Z"></path><path class="d" d="M77.45,37.29c.78.15,1.56.26,2.35.32.27.02.51-.04.73-.19.29-.2.59-.39.84-.69-.21-.19-.45-.18-.67-.19-.95-.06-1.86-.27-2.8-.41-.05,0-.09,0-.14,0-.16,0-.22.08-.33.23-.07.1-.28.33-.27.51.01.2.13.39.29.42Z"></path><path class="d" d="M75.44,24.5c1.51.29,3.02.48,4.56.55.36.02.72.03,1.08.05.27-.29.38-.66.56-1,1.52-2.93,3.37-5.6,5.87-7.77.16-.14.14-.27-.04-.37-.39-.22-.63-.19-.96.13-.38.36-.77.71-1.19,1.01-.72.52-1.48.96-2.35,1.15-.98.22-1.96.22-2.96.11-.46-.05-.74-.28-.95-.66-.12-.22-.2-.46-.25-.7-.04-.18-.07-.36-.11-.53-.02-.08-.02-.11-.16-.08-.14.03-.39.2-.44.24-1.03.83-1.75,1.89-2.24,3.12-.51,1.26-.72,2.58-.83,3.92-.01.13,0,.27,0,.41.03.29.1.36.42.42Z"></path><path class="d" d="M85.71,5.36c.82.53,1.62,1.09,2.44,1.63.12.08.23.18.45.16-.02-1.16-.18-2.3-.78-3.33-.56-.98-1.4-1.6-2.49-1.86-.22-.05-.44-.09-.66-.11-1.07-.11-2.08.07-3,.65-.24.15-.48.31-.63.59.07.03.13.06.19.08,1.59.51,3.07,1.28,4.47,2.19Z"></path><path class="d" d="M95.89,23.21c-.21-1.11-.7-2.08-1.47-2.91-1.1-1.18-2.43-1.96-3.96-2.42-.27-.08-.45-.04-.67.14-1.33,1.09-2.48,2.34-3.35,3.84-1.09,1.87-1.62,3.89-1.57,6.07.02.82.13,1.62.3,2.41.32,1.46.83,2.85,1.6,4.14.24.34.83.87,1.34,1.19.04-.32.23-1.85.41-2.54.34-1.24,1.15-2.94,1.22-3.19.08-.28-.08-.57-.13-.85-.21-1.07-.57-1.72-.45-2.82,0-.07.02-.13.05-.19.01-.02.08-.04.11-.02.12.04.14.17.18.27.47.95.99,1.87,1.55,2.76.29.46.61.89,1,1.27.12.12.23.28.41.29.37-.25.71-.51,1.07-.73,1.31-.8,2.73-1.2,4.27-1.14.38.01.75,0,1.14,0,.02-.29-.11-.5-.21-.73-.6-1.32-1.36-2.54-2.28-3.65-.3-.36-.48-.74-.56-1.19Z"></path><path class="d" d="M101.26,27.78s.25.28.28.23c0-.02-.13-.23-.23-.5,0,0,0,0,0,0-.12-.51.02-.96.31-1.37.24-.34.45-.7.6-1.09.2-.51.25-1.13.07-1.55-.18-.42-.19-.45-.31-.59-.14-.17-.17-.06-.13.05.05.13.07.26.11.4.04.14.08.52.05.81,0,0,0,0,0,0-.05.21-.21.67-.62,1.3-.31.48-.35.54-.45.93-.12.49-.07.99.32,1.38Z"></path><path class="d" d="M103.45,33.5c.13.2.21.07.2.02-.01-.06-.27-.69-.3-.8-.19-.7-.14-1.37.17-2.02.17-.35.34-.71.51-1.06.3-.6.54-1.22.71-1.87.29-1.12.32-2.18-.09-3.28,0,0-.08-.19-.16-.39-.08-.2-.11-.3-.22-.46-.09.2.26.66.26,1.23h0c0,1.26-.16,2.44-.72,3.57-.14.29-.29.59-.43.88-.18.4-.37.8-.47,1.23-.22.93-.22,1.84.34,2.67.04.1.18.29.18.29Z"></path><path class="d" d="M71.19,37.49c.34.39.69.76,1.23.88.17.04.31.17.48.24.87.43,1.75.8,2.73.83,1.12.03,2.18-.19,3.05-.96.08-.07.18-.15.11-.31-.51-.06-1.04-.13-1.57-.17-.25-.02-.43-.13-.54-.34-.1-.2-.16-.42-.24-.63-.06-.16-.03-.31.09-.44.2-.22.39-.43.58-.66.11-.14.28-.23.31-.44-.06-.02-.12-.05-.18-.07q-.72-.24-1.34.17c-.17.11-.34.22-.51.33-.21.13-.29.31-.29.56.01.45,0,.91,0,1.36,0,.1-.04.17-.15.17-.1,0-.15-.07-.17-.17,0-.02,0-.04-.01-.07-.04-.47-.09-.95-.13-1.42-.01-.17.05-.3.17-.42.23-.21.45-.43.68-.65.06-.06.14-.14.08-.22-.04-.07-.14-.12-.22-.13-.47-.07-.89-.08-1.26.38-.03.04-.08.08-.11.11-.24.21-.33.43-.32.75.02.43,0,.86,0,1.29,0,.11-.02.22-.03.33,0,.06-.04.07-.09.07s-.09,0-.11-.06c0-.02-.03-.04-.03-.06-.06-.58-.11-1.17-.17-1.75-.02-.23.08-.37.25-.51.22-.19.42-.4.62-.62.12-.13.04-.31-.14-.35-.3-.07-.69.04-.84.14-.15.1-.14.11-.23.18-.02.02-.05.05-.09.09,0,0,0,0-.01.01-.04.04-.07.07-.08.07q-.47.54-.39,1.25c.03.31.12.62.08.93,0,.03-.03.09-.06.09-.04.01-.09,0-.12-.03-.13-.1-.2-.24-.22-.4-.02-.18-.04-.36-.06-.53-.09-.87-.1-.88.6-1.55.03-.03.06-.06.09-.08.05-.05.04-.11.04-.11-.04-.18-.4-.2-.4-.2-.35-.05-.78.3-1.05.71,0,0,0,0,0,0,0,0,0-.05,0-.05-.18.47-.12,1.04-.17,1.39h0c.07.35-.03.72.13,1.03"></path><path class="d" d="M85,5.48c-.56-.33-1.13-.71-1.71-1.02-1.06-.58-2.18-1.02-3.4-1.02h0s-.83.15-1.25.19c-.1,0-.43.07-.68.1-.1.02-.17.05-.24.1-.02.02-.04.05-.02.07.13.14.55.27.91.45.41.2,1.26.6,2.31.94.47.15.95.4,1.55.55.22.05.46.08.69.08.68,0,1.35,0,2.03,0,.08,0,.18.02.21-.1-.08-.18-.25-.24-.4-.33Z"></path><path class="d" d="M100.5,34.41c.42-.06.56-.61.54-.97-.01-.27-.08-.53-.17-.79-.32-.89-.79-1.71-1.26-2.53-.12-.21-.27-.27-.49-.29-1.32-.14-2.63,0-3.91.35-.62.17-1.23.4-1.8.72-.2.11-.22.17-.16.38.14.53.45.92.88,1.24.4.3.67.49,1.14.62.11.03.22.05.32.08.03.01.06.07.07.1,0,.04-.02.1-.05.11-.13.04-.25.08-.38.1-.5.11-1.77.42-1.94.86.36-.08.96-.1,1.09-.1.74-.02,1.48-.05,2.48-.05s3.63.15,3.63.15ZM99.77,36.34c-.22.07-1.07.05-1.61.07-.33.01-.33,0-.43-.37-.01-.04,0-.09-.01-.16.35-.08.71-.03,1.06-.04.2,0,.4.02.59-.09.08-.04.18-.07.19-.17.01-.13-.14-.18-.23-.19-.45-.02-.89-.05-1.33-.08l-1.27-.03c-.76-.02-1.47-.04-2.23-.06,0,0-.61.03-.77.02s-.49-.04-.73,0c-.18.03-.66.05-.72.25-.06.2.38.36.52.47.11.08.23.14.36.18.15.05.3.09.45.12.14.03.18.12.17.24-.01.13-.08.2-.22.19-.87-.11-1.55-.22-2.04-1.03-.1-.16-.21-.22-.38-.18-.8.2-1.72.18-2.39.73-.24.2-.51.36-.83.43-.99.24-1.99.49-2.99.73-.17.04-.37.06-.51.16-.64.42-1.26.86-1.8,1.41-.09.09-.12.18-.06.3.08.16.15.33.25.48.2.3.42.59.62.88.21.31.43.71.73.91.26-.19.43-.29.65-.48.34-.28.71-.44,1.16-.44.42,0,.85-.06,1.27-.07.26,0,.47-.09.64-.3.08-.1.19-.19.29-.29.37-.38.82-.6,1.33-.72.93-.21,1.88-.25,2.91-.33-.37.4-.77.58-1.19.72-.25.08-.52.13-.78.2-.35.1-.66.22-.92.51-.32.35-.73.57-1.18.73-.61.21-1.2.48-1.79.82.45.18.78.48,1.1.8.22.22.47.42.71.62.14.12.31.17.49.2.63.07,1.25-.28,1.52-.86.05-.1.09-.21.14-.31.25-.51.65-.9,1.27-1.21.02.04.06.07.06.1,0,.47,0,.95.12,1.41.04.15,0,.27-.13.35-.09.06-.19.12-.28.18-.33.23-.67.46-.99.69-.11.08-.08.22.05.25.69.16.8.42,1.52.47.17.01.32.19.34.32,0,0,0,0-.01,0,0,0,0,0,0,.01-.85,0-1.21-.11-2.06-.1-.3,0-.57-.06-.84-.18-1.34-.62-2.68-1.22-4.02-1.85-.35-.16-.68-.19-1.04-.09-.28.07-.56.13-.85.18-.17.03-.36.02-.53.02-.15,0-.25-.08-.29-.23-.03-.16-.07-.31-.08-.46-.05-.4-.1-.81-.13-1.21-.02-.22-.1-.38-.28-.5-.22-.15-.44-.31-.63-.5-.31-.31-.32-.61-.05-.97.13-.17.3-.34.48-.47.41-.31.83-.62,1.25-.91.39-.27.93-.69,1.18-.77.25-.08.85-.24.85-.24-.2-.28-1.03-.08-1.18-.04-.99.22-1.93.56-2.8,1.09-.99.6-1.82,1.38-2.64,2.18-.27.27-.47.6-.61.96-.2.5-.16.97.09,1.43.2.36.44.67.76.93.19.16.57.31.57.46h0c.7.41,1.21.77,1.88,1.03.09.03.2.13.31.02,0-.04,0-.07,0-.11-.03-.11-.11-.2-.15-.31-.06-.19-.14-.38-.2-.57,0,0,0,0,0,0,0,0,0,0,0,0-.02-.08-.04-.19.07-.22.05-.01.13.02.18.06.24.21.41.48.54.77.11.25.2.5.3.75.07.17.15.32.32.42.83.5,1.68.96,2.64,1.19.3.07.66.18,1.07.15.05-.55-1.04-.95-1.12-1.06-.02-.03-.04-.09-.03-.13,0-.05.03-.07.06-.09.03-.02.06-.03.11-.03.3.03.55.18.82.29.87.37,1.72.77,2.6,1.12,1.21.49,2.47.83,3.78.93.27.02.54.03.8-.04.09-.02.13-.12.08-.2-.11-.22-.36-.33-.44-.58.15-.05.29-.03.42.01.37.1.74.21,1.1.31.84.24,1.68.5,2.54.67.26.05.52.09.84.05-.1-.21-.27-.29-.39-.41-.22-.2-.43-.39-.65-.59-.06-.06-.13-.14-.09-.24.06-.14.19-.09.29-.08.13.01.26.05.39.09.24.07.47.15.71.22.92.29,1.85.57,2.81.68.88.11,1.76.13,2.61-.14.8-.26,1.62-.35,2.44-.48,1.2-.19,2.4-.39,3.58-.67.42-.1,1.04-.48.97-.48.09-.06.18-.12.26-.19,1.02-.81,2.07-1.57,3.28-2.07.31-.13.57-.35.81-.59.78-.76.84-1.87.21-2.7-.68-.91-1.64-1.65-2.7-2.03-.11-.04-1.1-.29-.58.05.48.38.75.83,1.02,1.15.26.31.47.53.65.9.11.24.08.61-.09.8-.18.2-.29.32-.49.5-.37.33-.78.61-1.2.86-.48.29-.96.57-1.43.88-.32.21-.67.36-1.03.47-.55.18-1.11.35-1.66.51-.51.14-1.03.33-1.57.33-.63,0-1.25.01-1.87.11-.61.09-1.25-.04-1.85.17-.76-.05-1.51.07-2.27.14-.8.07-1.6.14-2.4.21-1.62.14-3.06.09-4.6-.46.02-.04.19-.25.54-.25s1.9.1,2.93.09c1.33-.01,1.38-.04,2.42-.91.08-.07.18-.13.15-.27-.81-.4-1.33-.51-2.15-.9-.68-.33-1.09-.61-.56-1.37.01-.02.03-.03.07-.07.22.22.43.45.65.67.28.27.58.49.98.55.75.13,1.49.26,2.24.39q.57.1.61.67c0,.09,0,.18.02.27.05.26-.13.59.1.77.21.16.52.06.79.05.29-.01.58-.05.86-.1.55-.1.7-.22.77-.77.06-.44.11-.42.51-.29.11.04.21.07.32.11,1,.42,1.88.26,2.61-.57.22-.25.48-.39.83-.35.04,0,.1.02.13,0,.05-.03.12-.09.12-.14,0-.13,0-.27-.03-.4-.02-.09-.07-.16-.18-.17-.58-.01-1.16-.08-1.7.22-.17.1-.38.14-.56.21-.36.14-.69.11-1-.14-.26-.21-.55-.39-.79-.62-.32-.29-.67-.4-1.1-.38-.74.02-1.48-.01-2.21-.02-.06,0-.09-.02-.08-.08,0-.04,0-.1.03-.12.07-.04.16-.08.24-.11.44-.16.88-.32,1.29-.55.24-.14.46-.13.7,0,.38.2.76.37,1.14.58.58.32,1.19.37,1.82.26.26-.05.53-.1.79-.16.88-.23,1.72-.15,2.52.33.23.14.48.24.71.37.39.23.79.25,1.22.13.56-.16,1.1-.38,1.61-.65.39-.2.44-.39.18-.75-.16-.22-.35-.41-.53-.61-.12-.13-.25-.26-.38-.38-.18-.17-.45-.76-.44-1.03,0-.2-.11-.56-.29-.66-.39-.22-1.31-.45-1.74-.58-1-.29-.75-.1-1.26.22-.4.25-.23.03-.65.24-.32.16-.65.3-1.02.32-1.03.05-2.05-.09-3.07-.19-.04,0-.08-.04-.1-.08-.04-.08.04-.12.09-.14.88-.29,1.76-.7,2.72-.35.06.02.15.02.19-.01.29-.24.68-.32.97-.57.05-.04-.01-.21-.08-.22-.13-.02-.26-.05-.4-.05-.27,0-.64-.14-.91-.14-.21,0-.28-.05-.31-.26-.01-.07-.02-.14-.02-.22.01-.44.87-.67,1.05-1.93.18-1.26-.25-2.12-.25-2.12,0,0,.06,1.06-.08,1.58-.12.46-1.05,1.12-1.13,1.92,0,0,0,0,0,0,0,.02,0,.06,0,.1,0,.07,0,.14.02.21h0c.03.2.08.41.09.47.04.19-.3.06-.48.03-.77-.15-1.21-.3-1.9-.35-.49-.04-1.94-.11-2.09-.03,0,0-.8.61-1.02.68ZM94.95,38.39c.37-.08.75-.13,1.11-.24.35-.1.65,0,.95.17.21.12.44.22.66.31.2.08.38.04.53-.15.23-.28.33-.63.56-.89.17-.23.45-.48.38-.22-.06.21-.13.46-.13.65.09.86.15.63-.54,1.01-.33.19-.65.38-.95.62-.21.17-.44.19-.68.04-.19-.12-.38-.23-.56-.36-.25-.18-.51-.27-.81-.22-.15.03-.31.02-.47.02-.28,0-.29,0-.35-.28-.08-.34-.06-.38.28-.45ZM92.2,38.15c-.38,0-.76.02-1.14,0-.5-.02-.98.06-1.45.2-.56.16-1.12.31-1.67.48-.34.1-.66.08-.96-.13-.44-.3-.93-.4-1.46-.42-.26,0-.54.02-.79-.19.47-.29.98-.44,1.49-.6.15-.04.31,0,.46.05.19.08.37.14.56.22.45.18.88.24,1.35.04.43-.18.89-.29,1.33-.44.37-.12.75-.15,1.11,0,.57.25,1.17.27,1.77.23.13-.01.27-.01.4,0,.11,0,.24-.01.25.15,0,.14-.11.18-.21.22-.34.11-.68.2-1.04.2Z"></path><path class="d" d="M87.88,8.42c-.25.16-.48.35-.64.6-.17.25-.39.27-.65.21-.09-.02-.17-.07-.18-.17-.05-.39-.12-.77-.28-1.12-.06-.13-.08-.27-.02-.41.04-.09.06-.16.09-.24.24-.74.11-.79-.62-.86-.49-.05-.99-.03-1.48.06-.68.11-1.29.08-1.96-.11-.41-.12-.49-.17-.92-.31-.23-.07-1.03-.35-1.03-.35-.22.08-.41.61-.43.71-.02.1-.15.99-.24,1.59-.02.15-.15.4-.16.76,0,.36.01.89.1,1.51.04.28-.01.58-.03.88-.02.31-.07.63-.05.95.04.76.33,1.36,1.1,1.62,0,0,.12.05.24.06.16.02.72.03,1.15.04,1.42.03,2.71-.37,3.83-1.26,0,0,0,0,0,0,.21-.15.36-.41.4-.32.04.09-.12.23-.24.48,0,0,0,0,0,0,0,0,0,0,0,0-.75,1.34-1.9,2.09-3.39,2.32-.29.05-.58.07-.87.09-.17,0-.25.08-.28.23-.08.38-.16.76-.22,1.14-.05.27-.08.54-.09.81-.01.33.11.44.45.45.09,0,.18,0,.27,0,1.1-.14,2.17-.4,3.14-.96.38-.21.72-.47,1.03-.78.23-.23.38-.5.4-.84.02-.32.07-.63.1-.95.09-.74.19-1.49.36-2.22.05-.22.13-.37.35-.45.23-.09.45-.21.62-.41.58-.69.78-1.53.84-2.4.02-.37-.35-.54-.67-.34ZM81.78,9.5c.23-.03.41.14.5.37.04.09.01.18-.09.21-.3.09-.6.17-.9.26-.17.05-.3.02-.42-.1-.18-.18-.32-.37-.4-.61-.06-.16.02-.26.19-.24.37.06.73.18,1.12.12ZM81.88,12.16c-.27.13-.53.29-.82.26-.45,0-.71-.18-.78-.51,0-.02.03-.07.06-.08.03-.01.08,0,.12,0,.46.1.91.2,1.39.17.06,0,.09.02.08.06,0,.03-.02.08-.05.1ZM81.3,11.33c-.41-.15-.83-.17-1.25-.2-.06,0-.12-.04-.22-.07.18-.27.43-.41.69-.51.07-.03.19-.01.25.03.26.21.56.23.88.23.38,0,.58.14.87.49-.42.09-.96.13-1.23.03Z"></path><path class="d" d="M57.26,32.51s-3.08-.63-3.55-.69c-.16-.02-.31-.04-.47-.05-.22-.01-.47.31-.51.45-.06.2.02.43.2.51.14.06.3.09.45.12.6.12,2.53.52,3.14.62,0,0,.11-.25.74-.97Z"></path><path class="d" d="M61.93,35.01s-.13-.23-.13-.54.37-.61.69-.78c0,0,5.35.95,5.9,1.03.51.07,1.57.22,1.91.22.13,0,.27.05.35.05h-.17v.16c0,.37-.02.77-.06,1.15h-.18c-.24-.09-3.3-.53-4.68-.76l-3.63-.53Z"></path><path class="d" d="M63.21,35.62c-.03.09-.02.07-.01.09.06.22.08.51.29.58h.01c.23-.01.43-.18.73-.54l-1.03-.12Z"></path><path class="d" d="M62.85,33.22h0c.21,0,.34.03.45.12.08.06.16.12.27.16l1.62.26c.11-.3.16-.68.17-.99v-.12c.03-.48.04-.49.49-.57.05-.01.12-.02.18-.04.24-.05.48-.08.71-.11l.15-.02c.59-.08,1.17-.16,1.76-.24.85-.11,1.7-.23,2.55-.35.36-.05,1.24-.23,1.4-.26-.03-.26-.06-.5-.09-.72-.14-1.11-.22-1.78-.27-3.04-.02-.4-.03-.77-.03-1.15-.32-.17-.66-.32-.9-.42v.03s-.03.05-.04.08c-.02.05-.04.1-.05.14-.04.12-.09.24-.15.36-.02.04-.07.05-.13.06-.02,0-.04,0-.06.01h0s-.31.08-.31.09v-.02h0c-.06,0-.61.28-.78.36-.05.02-.09.05-.11.06-1.6.69-3.24,1.59-5.15,2.81-.04.02-.23.1-.28.13-.15.08-.38.28-.38.28-.56.49-1.2.68-1.72.8-.43.1-.85.21-1.27.31-.43.11-.86.22-1.3.32-.59.13-1.05.38-1.43.78-.02.02-.04.04-.07.06l-.03.03c-.09.08-.16.16-.23.22-.08.08-.15.14-.21.19-.42.4-.85,1.02-.55,1.65h0s.02.05.03.08c.06.14.16.35.28.47.13.14.36.22.51.11-.13-.21-.26-.71-.28-.91-.04-.33.17-.59.37-.72.08-.05.17-.1.22-.07.02.01.03.03.04.05.01.05-.03.12-.08.2-.02.03-.03.05-.05.08-.15.3-.13.73.06,1.28,0,0,.22.42.54.5.11.03.23.01.34-.06-.01-.02-.03-.04-.04-.06-.03-.04-.05-.07-.07-.1-.33-.57-.34-1.18-.04-1.72.04-.07.21-.39.33-.39h0s.05.06.05.07c.04.05.02.16-.01.28,0,.03-.01.07-.02.09,0,.05-.02.11-.04.17-.06.22-.15.54-.04,1.04v.02c.04.13.06.22.16.42.06.11.33.38.58.38h0c.11,0,.21-.06.27-.18.01-.02.03-.07.05-.09-.04-.04-.12-.13-.16-.21-.33-.69-.3-1.22.1-1.81.21-.31.5-.5.62-.5.04,0,.06.01.07.03.02.05-.03.11-.11.22l-.03.04c-.16.21-.26.39-.36.64-.18.45-.04.75.17,1.17.11.23.33.49.44.59.12.08.48.34.69.27.07-.02.12-.08.15-.18.04-.2-.22-.45-.25-.48h0c-.31-.33-.4-.67-.28-1.02.11-.32.53-.74,1.34-.95,0,0,0,0,.12-.02.06,0,.12-.02.12-.02Z"></path><path class="d" d="M72.27,25.37c.07-2.09.43-2.51.46-2.62-.97,1.3-1.29,2.25-1.24,2.34.05.1.53.2.77.28Z"></path><path class="c" d="M80.19,6.65c.28,0,.54.1.79.21.3.13.36.3.25.62-.05.15-.12.24-.27.25-.11.01-.32,0-.32,0h0s-.21.01-.3,0c-.18,0-.31-.07-.34-.28-.02-.16-.09-.31-.12-.47-.04-.22.07-.34.3-.34Z"></path><path class="c" d="M84.74,7.91c-.27.12-.56.15-.85.18-.31.03-.63,0-.88.26-.04.05-.13.05-.18,0-.27-.23-.65-.38-.54-.81,0-.09,0-.14,0-.18,0-.13.06-.22.19-.23.47-.03.94-.07,1.41-.02.08,0,.18.04.24.09.19.17.41.27.63.39.05.02.08.11.08.17,0,.06-.06.13-.11.16Z"></path><path class="d" d="M125.2,64.73c.9.64,1.71,1.36,2.44,2.17,1.23,1.35,1.98,2.96,2.46,4.71.41,1.46.56,2.96.57,4.47,0,.5.03,1.01.05,1.51,0,.13-.05.2-.18.21-.06,0-.13,0-.19,0-1.51,0-3.03,0-4.54-.01-.11,0-.22,0-.32-.01-.1,0-.16-.06-.16-.17,0-.15-.02-.31-.02-.46,0-.63.02-1.27,0-1.9-.06-3.27-1.67-5.51-4.51-6.93-.9-.45-1.87-.67-2.88-.66-1.25.02-2.51,0-3.76,0-.13,0-.26,0-.39.03-.05,0-.12.07-.12.12-.02.17-.02.35-.02.52,0,2.93.02,5.86.03,8.79,0,.17,0,.35,0,.52,0,.15-.09.24-.24.24-.11,0-.22,0-.33,0h-4.15c-.15,0-.3,0-.45-.01-.13,0-.19-.09-.19-.22,0-.17,0-.35,0-.52,0-3.15,0-6.3,0-9.45,0-4.97,0-9.93,0-14.9,0-.13,0-.26.01-.39,0-.05.05-.12.13-.12.13,0,.26-.01.39-.01,1.69,0,3.37-.02,5.06-.02,2.6-.01,5.19-.02,7.79-.03.9,0,1.77.14,2.59.5,2.32,1.04,3.53,2.86,3.65,5.42.11,2.36-.8,4.34-2.28,6.1-.14.16-.28.33-.43.5"></path><path class="d" d="M136.39,64.78v-11.77c0-.11-.02-.22-.01-.33,0-.5,0-.58.5-.58,3.72,0,7.44-.08,11.16-.08h5.97c.15,0,.3.08.45.08.13,0,.19.12.19.25,0,.04,0,.11,0,.15,0,1.53,0,3.07,0,4.6,0,.06,0,.14-.02.2-.02.05-.08.06-.13.07-.19.02-.39-.04-.58-.04h-11.68c-.6,0-.56.04-.56.62,0,.76,0,1.56,0,2.32,0,.27.02.26.3.27.17,0,.35-.03.52-.03h11.36c.19,0,.39.04.58.05.13,0,.2.09.2.22,0,.15.01.32.01.47,0,1.38,0,2.76,0,4.14,0,.07,0,.13,0,.2,0,.24-.04.28-.25.28-.17,0-.35,0-.52,0-1.99,0-3.98-.02-5.97-.02-1.88,0-3.76,0-5.65.02-.13,0-.26,0-.39.01-.12,0-.2.08-.2.21,0,.11,0,.22,0,.33,0,1.84,0,3.67,0,5.51,0,.13,0,.26.01.39,0,.1.06.17.16.17.19,0,.39.01.58.01,3.81,0,7.62,0,11.42,0,.94,0,.79-.13.8.78.01,1.31,0,2.63,0,3.94,0,.09,0,.17,0,.26,0,.27-.02.33-.31.34-.08,0-.17.05-.26.05h-17.07c-.66,0-.61,0-.63-.69-.02-.59.02-1.23.02-1.82v-10.6h0Z"></path><path class="d" d="M14.39,65.13c0-2.84,0-5.33,0-7.98,0-1.36-.02-2.73-.03-4.09,0-.24-.07-.53.08-.71.18-.21.49-.09.74-.09,2.1-.01,4.2-.02,6.3-.03,2.44,0,4.89-.01,7.33-.02,1.05,0,2.07.16,3.02.64,1.78.9,2.88,2.34,3.23,4.32.44,2.48-.27,4.68-1.8,6.61-1.43,1.8-3.31,2.91-5.5,3.5-.52.14-1.05.22-1.59.27-1.64.17-3.28.06-4.93.1-.43.01-.87.01-1.3.02-.16,0-.28.08-.27.24,0,.26-.04.53-.04.79v8.07c0,.31.05.61.05.92,0,.1-.04.16-.14.17-.11.01-.21.02-.31.02-1.47,0-2.94,0-4.41,0-.09,0-.17,0-.26-.01-.1,0-.16-.07-.17-.16-.01-.19-.01-.35-.01-.55,0-4.03,0-8.14,0-12.04h0Z"></path><path class="d" d="M74.55,65.13c0-4.25,0-8.18,0-12.23,0-.69-.08-.69.61-.69,5.69,0,11.38-.02,17.08-.02.13,0,.26-.01.39,0,.12,0,.2.05.21.19,0,.04,0,.08,0,.13,0,1.53,0,3.06,0,4.59,0,.04,0,.09,0,.13,0,.13-.06.15-.19.16-.2,0-.39-.05-.58-.05h-10.97c-.15,0-.3.05-.45.05-.88.01-.75-.05-.76.8,0,.68,0,1.37,0,2.05,0,.34.02.36.38.37.15,0,.3,0,.45,0,3.85,0,7.74,0,11.59,0,.61,0,.61-.03.61.56v4.2c0,.09-.04.17-.04.26,0,.22-.06.26-.29.26-1.47,0-2.95,0-4.43,0-1.69,0-3.38,0-5.07,0-.84,0-1.69.01-2.53.02-.17,0-.35,0-.52.02-.09.01-.15.08-.16.18,0,.15,0,.31,0,.46,0,2.51,0,5.03.01,7.55,0,1.05,0,2.1.02,3.15,0,.15,0,.31-.01.46,0,.09-.07.16-.16.17-.06,0-.13,0-.19,0h-4.54s-.09,0-.13,0c-.23-.01-.27-.05-.29-.26,0-.15,0-.31,0-.46-.01-2.19-.03-4.29-.04-6.48,0-1.88,0-3.79,0-5.56h.04Z"></path><path class="d" d="M59.6,52.01h10.05c.65,0,.58.04.58.69,0,1.38,0,2.79,0,4.17,0,.11,0,.24,0,.35,0,.13-.08.15-.2.15-.17,0-.35-.04-.52-.04h-6.42c-.17,0-.35.05-.52.06-.16,0-.18.12-.19.27,0,.31.03.64.03.95v17.19c0,.61-.05,1.23-.05,1.84,0,.15-.08.25-.25.25-.07,0-.15,0-.22,0h-4.48c-.09,0-.18,0-.26-.01-.1-.01-.15-.08-.16-.17,0-.2,0-.39,0-.59,0-6.28,0-12.56,0-18.84,0-.26.11-.58-.06-.76-.2-.21-.53-.08-.8-.08-2.1,0-4.2,0-6.29,0-.17,0-.35,0-.52,0-.12,0-.19-.09-.21-.21-.01-.06-.01-.13-.01-.19,0-1.36,0-2.71.02-4.07,0-.96-.03-.87.81-.88,3.25,0,6.49-.08,9.74-.08"></path><path class="d" d="M102.68,64.4c0,2.19,0,3.86,0,5.52-.01,1.58-.06,3.15-.07,4.72,0,.85.03,1.71.05,2.56,0,.15.02.3.02.46,0,.13-.08.19-.2.21-.11.01-.21.02-.32.02-1.49,0-2.99,0-4.48,0-.07,0-.13,0-.2,0-.13-.01-.19-.1-.19-.22,0-.17,0-.35,0-.52,0-1.95,0-3.9,0-5.84,0-6.19,0-12.39,0-18.58,0-.92-.12-.79.79-.8,1.32,0,2.64,0,3.96,0,.11,0,.22,0,.33,0,.22,0,.26.04.26.27,0,.99-.02,1.97,0,2.95.07,3.26.05,6.52.05,9.25"></path><path class="d" d="M44.5,64.95c-.04,1.37-.05,2.75,0,4.13.04,1-.03,2.01-.03,3.02,0,1.73,0,3.45,0,5.18,0,.11,0,.22,0,.33-.01.22-.06.27-.26.29-.09,0-.17,0-.26,0h-4.28c-.09,0-.17,0-.26,0-.22-.01-.27-.06-.27-.27,0-.57,0-1.14.01-1.7,0-1.07.02-2.14.02-3.21,0-6.06,0-12.11,0-18.17,0-.76-.02-1.53-.02-2.3,0-.28.03-.32.29-.32,1.58,0,3.16,0,4.73,0,.26,0,.28.04.29.31,0,.11,0,.22,0,.33.02,1.4-.02,2.8.04,4.2.03.72-.04,1.44-.04,2.16,0,1.84.03,3.67.04,5.51,0,.18,0,.35,0,.53"></path><path class="b" d="M117.81,57.46c1.05,0,2.18,0,3.3,0,.26,0,.48.01.73.12.46.2.7.55.75,1.05.07.66-.14,1.25-.49,1.8-.3.46-.71.83-1.18,1.11-.71.44-1.49.7-2.32.79-.93.1-1.86.06-2.79.07-.58,0-1.17,0-1.75,0-.39,0-.41-.02-.41-.4,0-.77,0-1.53,0-2.3,0-.53,0-1.05,0-1.58,0-.11,0-.22.02-.33.02-.27.06-.31.31-.32.15,0,.38,0,.53,0,1.08,0,1.92,0,3.32,0h0Z"></path><path class="b" d="M24.54,57.46c1.4,0,2.73,0,4.12,0,.17,0,.33,0,.5.02.42.08.63.32.68.75.04.44-.03.87-.19,1.28-.3.75-.79,1.35-1.44,1.82-.92.67-1.96,1.02-3.09,1.03-1.67.02-3.33,0-5,0-.09,0-.18,0-.26-.02-.05-.02-.09-.08-.12-.13-.02-.04-.01-.09-.01-.13,0-1.36,0-2.71.01-4.07,0-.57.02-.58.62-.57,1.38.01,2.79,0,4.19,0h0Z"></path><path class="d" d="M141.28,42.44h-1.51c-8.34-20.56-27.85-35.81-50.97-37.49-.12-.44-.3-.86-.55-1.3-.03-.04-.06-.13-.08-.18,24.18,1.46,44.61,17.34,53.11,38.97Z"></path><path class="d" d="M84.5,126.69c-25.67,0-47.69-15.82-56.68-38.87h1.52c8.91,21.98,30.28,37.45,55.17,37.45s46.25-15.47,55.17-37.45h1.52c-8.99,23.05-31.01,38.87-56.68,38.87Z"></path><path class="d" d="M52.96,96.45c0,.71-.21,1.26-.62,1.63-.41.37-1.02.56-1.83.56h-1.35v2.59h-1.27v-6.99h2.62c1.63,0,2.44.74,2.44,2.21ZM51.39,95.6c-.19-.17-.48-.26-.87-.26h-1.35v2.21h1.35c.4,0,.69-.09.88-.28.19-.18.28-.47.28-.85s-.1-.66-.29-.83Z"></path><path class="d" d="M54.5,94.24h1.27v6.99h-1.27v-6.99Z"></path><path class="d" d="M62.84,100.11v1.12h-5.3v-1.1l3.43-4.78h-3.31v-1.12h4.88v1.1l-3.42,4.78h3.72Z"></path><path class="d" d="M69.79,100.11v1.12h-5.3v-1.1l3.43-4.78h-3.31v-1.12h4.88v1.1l-3.42,4.78h3.72Z"></path><path class="d" d="M75.88,99.51h-2.78l-.61,1.72h-1.28l2.51-7.07h1.53l2.52,7.07h-1.28l-.61-1.72ZM75.49,98.39l-1-2.84-.99,2.84h2Z"></path><path class="d" d="M87.08,98.29c.22.28.32.61.32,1.01,0,.65-.2,1.13-.6,1.45-.4.32-1.07.48-2,.48h-2.64v-6.99h2.64c.84,0,1.44.16,1.8.47.35.31.53.78.53,1.4,0,.37-.08.69-.23.95-.15.26-.4.47-.73.61.4.13.7.33.92.61ZM83.43,97.21h1.38c.69,0,1.04-.33,1.04-.99,0-.34-.08-.58-.24-.73-.16-.15-.43-.22-.8-.22h-1.38v1.94ZM85.79,98.47c-.22-.15-.55-.23-.98-.23h-1.38v1.95h1.38c.48,0,.82-.08,1.02-.24.2-.16.3-.41.3-.75s-.11-.58-.33-.74Z"></path><path class="d" d="M93.23,99.51h-2.78l-.61,1.72h-1.28l2.51-7.07h1.53l2.52,7.07h-1.28l-.61-1.72ZM92.84,98.39l-1-2.84-.99,2.84h2Z"></path><path class="d" d="M98.32,98.41l-.39.43v2.39h-1.27v-6.99h1.27v2.81l2.53-2.81h1.58l-2.9,3.24,2.94,3.75h-1.6l-2.17-2.82Z"></path><path class="d" d="M108.05,100.18v1.05h-4.43v-6.99h4.39v1.05h-3.12v1.9h2.66v1.05h-2.66v1.94h3.16Z"></path><path class="d" d="M112.17,98.49h-1.06v2.74h-1.27v-6.99h2.62c1.63,0,2.44.71,2.44,2.13,0,.53-.12.96-.36,1.3-.24.34-.6.57-1.08.7l1.75,2.86h-1.41l-1.62-2.74ZM111.11,97.39h1.35c.77,0,1.16-.35,1.16-1.05,0-.35-.1-.61-.29-.77-.19-.16-.48-.24-.87-.24h-1.35v2.06Z"></path><path class="d" d="M116.61,100.87v-1.16c.74.39,1.55.58,2.45.58.43,0,.75-.08.95-.25.2-.17.3-.39.31-.66,0-.27-.09-.47-.28-.61-.19-.14-.48-.26-.88-.37l-.62-.18c-.35-.1-.66-.22-.92-.36-.26-.14-.48-.34-.66-.61-.18-.27-.26-.61-.26-1.04,0-.69.2-1.21.61-1.57.41-.36.98-.54,1.72-.54.44,0,.83.04,1.17.12.34.08.68.21,1.03.37v1.12c-.66-.35-1.4-.53-2.21-.53-.72,0-1.08.3-1.08.91,0,.27.09.47.25.6.16.13.44.25.83.35l.63.18c.38.1.71.23.98.38.27.15.49.36.67.63.18.27.26.63.26,1.06,0,.64-.23,1.14-.68,1.51-.45.37-1.06.55-1.84.55-.92,0-1.74-.17-2.45-.52Z"></path><path class="d" d="M77.4,108.16c.4.41.6,1.01.6,1.81s-.2,1.4-.6,1.81c-.4.4-1,.61-1.79.61h-1.59v-4.84h1.59c.79,0,1.38.21,1.78.62ZM76.92,108.54c-.29-.3-.73-.45-1.31-.45h-.98v3.75h.98c.58,0,1.02-.15,1.32-.45.29-.3.44-.78.44-1.44s-.15-1.11-.44-1.41Z"></path><path class="d" d="M79.83,112.02c-.3-.31-.45-.76-.45-1.33v-3.15h.62v3.15c0,.41.1.73.3.94.2.21.5.32.9.32s.7-.11.9-.32c.2-.21.3-.53.3-.94v-3.15h.62v3.15c0,.57-.15,1.02-.45,1.33-.3.31-.76.47-1.37.47s-1.07-.16-1.37-.47Z"></path><path class="d" d="M88.02,111.08c0,.44-.13.77-.39.99-.26.21-.7.32-1.32.32h-1.65v-4.84h1.65c.56,0,.95.11,1.18.32.23.21.34.54.34.98,0,.26-.05.48-.16.66-.11.18-.28.32-.51.42.57.19.86.57.86,1.15ZM85.27,109.7h1.04c.59,0,.89-.27.9-.81,0-.3-.07-.51-.2-.63-.13-.12-.36-.19-.7-.19h-1.04v1.63ZM87.12,110.42c-.18-.13-.45-.19-.81-.19h-1.04v1.64h1.04c.4,0,.68-.07.84-.2.16-.13.25-.34.25-.63s-.09-.49-.27-.62Z"></path><path class="d" d="M92.08,110.97h-1.99l-.51,1.41h-.63l1.8-4.9h.68l1.81,4.9h-.63l-.52-1.41ZM91.87,110.42l-.79-2.16-.79,2.16h1.58Z"></path><path class="d" d="M94.42,107.55h.61v4.84h-.61v-4.84Z"></path><path class="d" d="M61.01,36.39c0-.07-.33-.18-.48-.28-.16.12-.38.2-.63.2-.07,0,.06,0-.29-.02v6.16h1.4v-6.05Z"></path><path class="d" d="M78.52,11.36c0-.09.02-.17.02-.26,0-.04,0-.07,0-.11-2.36.47-4.78,1.32-7.4,2.59-4.65,2.26-8.14,5.85-10.03,10.4-1.31,3.16-1.52,5.06-1.52,6.36v.47c.35-.05,1.39-.39,1.43-.4.09-2.04,1.06-10.84,10.73-15.54,2.36-1.15,4.63-1.96,6.75-2.41-.01-.1-.02-.2-.03-.31-.01-.27,0-.52.03-.74v-.04Z"></path><path class="d" d="M109.39,36.42v-5.74c0-.52-.05-3.29-1.46-6.69-1.88-4.51-5.36-8.11-10.08-10.4-3.15-1.53-6.06-2.46-8.86-2.83-.16.36-.36.68-.6.97-.11.13-.23.24-.37.34,2.9.28,5.93,1.2,9.23,2.8,10.71,5.2,10.75,15.38,10.75,15.81v5.33s1.4.4,1.4.4Z"></path></svg> 